<?xml version="1.0" encoding="UTF-8" standalone="no"?>
<!-- Generator: Fusion 360, Shaper Origin Export Add-In, Version 1.6.10  -->

<svg
   shaper:fusionaddin="version:1.6.10"
   width="23.268cm"
   height="25.434cm"
   version="1.1"
   x="0cm"
   y="0cm"
   viewBox="0 0 23.268 25.434001"
   enable-background="new 0 0 21.1679707 23.3342612"
   xml:space="preserve"
   id="svg1059"
   sodipodi:docname="mount_plate.svg"
   inkscape:version="1.2.2 (732a01da63, 2022-12-09)"
   xmlns:inkscape="http://www.inkscape.org/namespaces/inkscape"
   xmlns:sodipodi="http://sodipodi.sourceforge.net/DTD/sodipodi-0.dtd"
   xmlns="http://www.w3.org/2000/svg"
   xmlns:svg="http://www.w3.org/2000/svg"
   xmlns:shaper="http://www.shapertools.com/namespaces/shaper"><defs
     id="defs1063" /><sodipodi:namedview
     id="namedview1061"
     pagecolor="#ffffff"
     bordercolor="#000000"
     borderopacity="0.25"
     inkscape:showpageshadow="2"
     inkscape:pageopacity="0.0"
     inkscape:pagecheckerboard="0"
     inkscape:deskcolor="#d1d1d1"
     inkscape:document-units="cm"
     showgrid="false"
     inkscape:zoom="0.94128586"
     inkscape:cx="236.37878"
     inkscape:cy="386.70506"
     inkscape:window-width="2560"
     inkscape:window-height="1377"
     inkscape:window-x="-8"
     inkscape:window-y="-8"
     inkscape:window-maximized="1"
     inkscape:current-layer="svg1059" /><path
     d="m 21.987052,8.9825066 -0.34641,0.2 -0.5,-0.8660254 0.34641,-0.2 -0.230932,-0.3999873 v -0.00131 l 0.230932,-0.3999876 -0.34641,-0.2 0.5,-0.8660254 0.34641,0.2 0.230933,-0.3999874 -0.230933,-0.3999872 -0.34641,0.2 -0.5,-0.8660254 0.34641,-0.2 -0.230932,-0.3999877 v -0.00131 l 0.230932,-0.3999871 -0.34641,-0.2 0.5,-0.8660254 0.34641,0.2 0.230933,-0.3999867 -0.230933,-0.399988 -0.34641,0.2 -0.5,-0.866025 0.34641,-0.2 -0.230932,-0.399988 h -0.461866 v 0.4 h -1 v -0.4 H 3.9482392 l -0.00631,0.01094 -0.00631,-0.01094 H 3.4737459 v 0.4 h -1 v -0.4 H 2.01188 l -0.2309326,0.399988 0.3455443,0.1995 -0.4999998,0.866025 -0.345544,-0.1995 -0.230933,0.399988 0.230932,0.3999869 0.345545,-0.1995002 0.4999998,0.8660254 -0.3455443,0.1995001 0.2309326,0.399987 v 0.00131 L 1.7810825,4.7829363 2.1264917,4.9823584 1.6264919,5.8483838 1.2810829,5.6489618 1.0500149,6.0491835 1.2808119,6.4489366 1.6264919,6.2493584 2.1264917,7.1153838 1.7808119,7.3149621 2.01188,7.7151839 v 0.00131 L 1.7810737,8.1162624 2.1264917,8.3156895 1.6264919,9.181715 1.2810739,8.9822878 1.0500149,9.3824943 1.2808209,9.7822627 1.6264919,9.5826895 2.1264917,10.448715 1.7808207,10.648288 2.01188,11.048495 v 0.0013 l -0.2308152,0.399784 0.3454269,0.199432 -0.4999998,0.866026 -0.345427,-0.199433 -0.23105,0.400191 0.230815,0.399784 0.345662,-0.199568 0.4999998,0.866026 -0.3456617,0.199568 0.23105,0.40019 v 0.0013 l -0.2308244,0.3998 0.3454361,0.199437 -0.4999998,0.866036 -0.345436,-0.199438 -0.231041,0.400175 0.230824,0.3998 0.345653,-0.199563 0.4999998,0.866026 -0.3456529,0.199562 0.2310412,0.400176 v 0.0013 l -0.2308332,0.399825 0.3454449,0.199442 -0.4999998,0.866026 -0.345445,-0.199443 -0.231032,0.40016 0.230833,0.399815 0.345644,-0.199558 0.4999998,0.866026 -0.3456441,0.199557 0.2310324,0.40016 v 0.0013 l -0.230842,0.399841 0.3454537,0.199447 -0.4999998,0.866026 -0.345454,-0.199448 -0.231023,0.400145 0.230842,0.39983 0.345635,-0.199553 0.4999998,0.866026 -0.3456353,0.199552 0.2310236,0.400145 v 0.0013 l -6.19e-4,0.0011 h 19.245478 l -6.19e-4,-0.0011 v -0.0013 l 0.230932,-0.399989 -0.34641,-0.2 0.5,-0.866025 0.34641,0.2 0.230933,-0.399986 -0.230933,-0.399989 -0.34641,0.2 -0.5,-0.866025 0.34641,-0.2 -0.230932,-0.399987 v -0.0013 l 0.230932,-0.399988 -0.34641,-0.2 0.5,-0.866026 0.34641,0.2 0.230933,-0.399986 -0.230933,-0.399988 -0.34641,0.2 -0.5,-0.866026 0.34641,-0.2 -0.230932,-0.399986 v -0.0013 l 0.230932,-0.399988 -0.34641,-0.2 0.5,-0.866026 0.34641,0.2 0.230933,-0.399987 -0.230933,-0.399987 -0.34641,0.2 -0.5,-0.866026 0.34641,-0.2 -0.230932,-0.399987 v -0.0013 l 0.230932,-0.399988 -0.34641,-0.2 0.5,-0.866025 0.34641,0.2 0.230933,-0.399987 -0.230933,-0.399988 -0.34641,0.2 -0.5,-0.866025 0.34641,-0.2 -0.230932,-0.399987 v -0.0013 l 0.230932,-0.399988 -0.34641,-0.2 0.5,-0.8660258 0.34641,0.2 0.230933,-0.3999869 z"
     fill="rgb(0,0,0)"
     stroke-linecap="round"
     stroke-linejoin="round"
     id="path1057"
     style="fill:none;fill-opacity:1;stroke:#ff0000;stroke-width:0.1;stroke-dasharray:none;stroke-opacity:1" /></svg>
